<svg width="25" height="24" viewBox="0 0 25 24" fill="none" xmlns="http://www.w3.org/2000/svg">
<path d="M19.3333 6H17.3333V5C17.3333 4.20435 17.0172 3.44129 16.4546 2.87868C15.892 2.31607 15.1289 2 14.3333 2H10.3333C9.5376 2 8.77454 2.31607 8.21193 2.87868C7.64932 3.44129 7.33325 4.20435 7.33325 5V6H5.33325C4.5376 6 3.77454 6.31607 3.21193 6.87868C2.64932 7.44129 2.33325 8.20435 2.33325 9V19C2.33325 19.7956 2.64932 20.5587 3.21193 21.1213C3.77454 21.6839 4.5376 22 5.33325 22H19.3333C20.1289 22 20.892 21.6839 21.4546 21.1213C22.0172 20.5587 22.3333 19.7956 22.3333 19V9C22.3333 8.20435 22.0172 7.44129 21.4546 6.87868C20.892 6.31607 20.1289 6 19.3333 6ZM9.33325 5C9.33325 4.73478 9.43861 4.48043 9.62615 4.29289C9.81368 4.10536 10.068 4 10.3333 4H14.3333C14.5985 4 14.8528 4.10536 15.0404 4.29289C15.2279 4.48043 15.3333 4.73478 15.3333 5V6H9.33325V5ZM20.3333 19C20.3333 19.2652 20.2279 19.5196 20.0404 19.7071C19.8528 19.8946 19.5985 20 19.3333 20H5.33325C5.06804 20 4.81368 19.8946 4.62615 19.7071C4.43861 19.5196 4.33325 19.2652 4.33325 19V9C4.33325 8.73478 4.43861 8.48043 4.62615 8.29289C4.81368 8.10536 5.06804 8 5.33325 8H19.3333C19.5985 8 19.8528 8.10536 20.0404 8.29289C20.2279 8.48043 20.3333 8.73478 20.3333 9V19ZM18.3333 17C18.3333 17.2652 18.2279 17.5196 18.0404 17.7071C17.8528 17.8946 17.5985 18 17.3333 18H7.33325C7.06804 18 6.81368 17.8946 6.62615 17.7071C6.43861 17.5196 6.33325 17.2652 6.33325 17C6.33325 16.7348 6.43861 16.4804 6.62615 16.2929C6.81368 16.1054 7.06804 16 7.33325 16H17.3333C17.5985 16 17.8528 16.1054 18.0404 16.2929C18.2279 16.4804 18.3333 16.7348 18.3333 17Z" fill="#212529"/>
</svg>
