<svg width="25" height="24" viewBox="0 0 25 24" fill="none" xmlns="http://www.w3.org/2000/svg">
<path fill-rule="evenodd" clip-rule="evenodd" d="M15.9656 16.9737H8.74561C8.33161 16.9737 7.99561 16.6377 7.99561 16.2237C7.99561 15.8097 8.33161 15.4737 8.74561 15.4737H15.9656C16.3796 15.4737 16.7156 15.8097 16.7156 16.2237C16.7156 16.6377 16.3796 16.9737 15.9656 16.9737Z" fill="white"/>
<path fill-rule="evenodd" clip-rule="evenodd" d="M15.9656 12.7872H8.74561C8.33161 12.7872 7.99561 12.4512 7.99561 12.0372C7.99561 11.6232 8.33161 11.2872 8.74561 11.2872H15.9656C16.3796 11.2872 16.7156 11.6232 16.7156 12.0372C16.7156 12.4512 16.3796 12.7872 15.9656 12.7872Z" fill="white"/>
<path fill-rule="evenodd" clip-rule="evenodd" d="M11.5006 8.61041H8.74561C8.33161 8.61041 7.99561 8.27441 7.99561 7.86041C7.99561 7.44641 8.33161 7.11041 8.74561 7.11041H11.5006C11.9146 7.11041 12.2506 7.44641 12.2506 7.86041C12.2506 8.27441 11.9146 8.61041 11.5006 8.61041Z" fill="white"/>
<mask id="mask0_106_354" style="mask-type:luminance" maskUnits="userSpaceOnUse" x="3" y="2" width="19" height="20">
<path fill-rule="evenodd" clip-rule="evenodd" d="M3.25 2.00018H21.4147V21.91H3.25V2.00018Z" fill="white"/>
</mask>
<g mask="url(#mask0_106_354)">
<path fill-rule="evenodd" clip-rule="evenodd" d="M16.1585 3.5L8.46951 3.504C6.14151 3.518 4.74951 4.958 4.74951 7.357V16.553C4.74951 18.968 6.15451 20.41 8.50551 20.41L16.1945 20.407C18.5225 20.393 19.9145 18.951 19.9145 16.553V7.357C19.9145 4.942 18.5105 3.5 16.1585 3.5ZM8.50651 21.91C5.36251 21.91 3.24951 19.757 3.24951 16.553V7.357C3.24951 4.124 5.29651 2.023 8.46451 2.004L16.1575 2H16.1585C19.3025 2 21.4145 4.153 21.4145 7.357V16.553C21.4145 19.785 19.3675 21.887 16.1995 21.907L8.50651 21.91Z" fill="white"/>
</g>
</svg>
