<svg width="25" height="24" viewBox="0 0 25 24" fill="none" xmlns="http://www.w3.org/2000/svg">
<path d="M12.3333 7C11.7399 7 11.1599 7.17595 10.6665 7.50559C10.1732 7.83524 9.78868 8.30377 9.56161 8.85195C9.33455 9.40013 9.27514 10.0033 9.3909 10.5853C9.50665 11.1672 9.79237 11.7018 10.2119 12.1213C10.6315 12.5409 11.166 12.8266 11.748 12.9424C12.3299 13.0581 12.9331 12.9987 13.4813 12.7716C14.0295 12.5446 14.498 12.1601 14.8277 11.6667C15.1573 11.1734 15.3333 10.5933 15.3333 10C15.3333 9.20435 15.0172 8.44129 14.4546 7.87868C13.892 7.31607 13.1289 7 12.3333 7ZM12.3333 11C12.1355 11 11.9421 10.9414 11.7777 10.8315C11.6132 10.7216 11.4851 10.5654 11.4094 10.3827C11.3337 10.2 11.3139 9.99889 11.3525 9.80491C11.3911 9.61093 11.4863 9.43275 11.6261 9.29289C11.766 9.15304 11.9442 9.0578 12.1382 9.01921C12.3321 8.98063 12.5332 9.00043 12.7159 9.07612C12.8987 9.15181 13.0548 9.27998 13.1647 9.44443C13.2746 9.60888 13.3333 9.80222 13.3333 10C13.3333 10.2652 13.2279 10.5196 13.0404 10.7071C12.8528 10.8946 12.5985 11 12.3333 11ZM12.3333 2C10.2115 2 8.17669 2.84285 6.6764 4.34315C5.17611 5.84344 4.33325 7.87827 4.33325 10C4.33325 16 9.70325 20.51 11.6433 22.36C11.8292 22.5373 12.0763 22.6362 12.3333 22.6362C12.5902 22.6362 12.8373 22.5373 13.0233 22.36C14.9633 20.51 20.3333 16 20.3333 10C20.3333 7.87827 19.4904 5.84344 17.9901 4.34315C16.4898 2.84285 14.455 2 12.3333 2ZM12.3333 20.26C10.3333 18.34 6.33325 14.54 6.33325 10C6.33325 8.4087 6.96539 6.88258 8.09061 5.75736C9.21583 4.63214 10.742 4 12.3333 4C13.9246 4 15.4507 4.63214 16.5759 5.75736C17.7011 6.88258 18.3333 8.4087 18.3333 10C18.3333 14.54 14.3833 18.34 12.3333 20.26Z" fill="#212529"/>
</svg>
