<svg width="25" height="24" viewBox="0 0 25 24" fill="none" xmlns="http://www.w3.org/2000/svg">
<path d="M18.3877 10.8967C19.7827 10.7007 20.8567 9.50467 20.8597 8.05567C20.8597 6.62767 19.8187 5.44367 18.4537 5.21967" stroke="white" stroke-width="1.5" stroke-linecap="round" stroke-linejoin="round"/>
<path d="M20.2285 14.2503C21.5795 14.4523 22.5225 14.9253 22.5225 15.9003C22.5225 16.5713 22.0785 17.0073 21.3605 17.2813" stroke="white" stroke-width="1.5" stroke-linecap="round" stroke-linejoin="round"/>
<path fill-rule="evenodd" clip-rule="evenodd" d="M12.3867 14.6638C9.17273 14.6638 6.42773 15.1508 6.42773 17.0958C6.42773 19.0398 9.15573 19.5408 12.3867 19.5408C15.6007 19.5408 18.3447 19.0588 18.3447 17.1128C18.3447 15.1668 15.6177 14.6638 12.3867 14.6638Z" stroke="white" stroke-width="1.5" stroke-linecap="round" stroke-linejoin="round"/>
<path fill-rule="evenodd" clip-rule="evenodd" d="M12.3869 11.8879C14.4959 11.8879 16.2059 10.1789 16.2059 8.06888C16.2059 5.95988 14.4959 4.24988 12.3869 4.24988C10.2779 4.24988 8.5679 5.95988 8.5679 8.06888C8.5599 10.1709 10.2569 11.8809 12.3589 11.8879H12.3869Z" stroke="white" stroke-width="1.5" stroke-linecap="round" stroke-linejoin="round"/>
<path d="M6.38484 10.8967C4.98884 10.7007 3.91584 9.50467 3.91284 8.05567C3.91284 6.62767 4.95384 5.44367 6.31884 5.21967" stroke="white" stroke-width="1.5" stroke-linecap="round" stroke-linejoin="round"/>
<path d="M4.544 14.2503C3.193 14.4523 2.25 14.9253 2.25 15.9003C2.25 16.5713 2.694 17.0073 3.412 17.2813" stroke="white" stroke-width="1.5" stroke-linecap="round" stroke-linejoin="round"/>
</svg>
