<svg width="25" height="24" viewBox="0 0 25 24" fill="none" xmlns="http://www.w3.org/2000/svg">
<path d="M15.3333 11.85C14.8014 11.319 14.0847 11.0144 13.3333 11H13.2733H12.2733H11.3933C11.16 10.991 10.9387 10.8946 10.7733 10.73C10.6949 10.655 10.6323 10.565 10.5894 10.4654C10.5465 10.3657 10.524 10.2585 10.5233 10.15V10.06C10.5635 9.76312 10.7133 9.49202 10.9433 9.3C11.3437 9.00171 11.8344 8.84992 12.3333 8.87C12.4764 8.85971 12.6201 8.85971 12.7633 8.87C13.3233 8.94374 13.847 9.18815 14.2633 9.57C14.3617 9.65733 14.4765 9.7244 14.6009 9.76739C14.7253 9.81038 14.857 9.82845 14.9884 9.82056C15.1198 9.81266 15.2483 9.77897 15.3667 9.72139C15.4851 9.66382 15.5909 9.58349 15.6783 9.485C15.7656 9.38651 15.8327 9.27178 15.8757 9.14737C15.9186 9.02295 15.9367 8.89129 15.9288 8.7599C15.9209 8.6285 15.8872 8.49995 15.8296 8.38157C15.7721 8.2632 15.6917 8.15733 15.5933 8.07C14.9461 7.52232 14.167 7.15345 13.3333 7V6C13.3333 5.73478 13.2279 5.48043 13.0404 5.29289C12.8528 5.10536 12.5985 5 12.3333 5C12.068 5 11.8137 5.10536 11.6262 5.29289C11.4386 5.48043 11.3333 5.73478 11.3333 6V7C10.7168 7.12118 10.1398 7.39253 9.65326 7.79C9.03361 8.31808 8.637 9.06127 8.54326 9.87C8.53809 9.96326 8.53809 10.0567 8.54326 10.15C8.54759 10.9016 8.84965 11.6207 9.38326 12.15C9.9027 12.6693 10.5993 12.9729 11.3333 13H11.3933H12.3933H13.2733C13.5037 13.0125 13.7228 13.1044 13.8933 13.26C14.0504 13.4165 14.1401 13.6283 14.1433 13.85V13.93C14.1036 14.2299 13.9539 14.5043 13.7233 14.7C13.3228 14.9983 12.8322 15.1501 12.3333 15.13C12.1901 15.1403 12.0464 15.1403 11.9033 15.13C11.3459 15.0473 10.8246 14.8041 10.4033 14.43C10.3069 14.3344 10.192 14.2595 10.0658 14.2097C9.93947 14.1599 9.80437 14.1364 9.66869 14.1405C9.53302 14.1447 9.39961 14.1764 9.27658 14.2337C9.15356 14.2911 9.0435 14.3729 8.95311 14.4742C8.86272 14.5754 8.79389 14.694 8.75082 14.8228C8.70774 14.9515 8.69133 15.0876 8.70257 15.2229C8.71381 15.3582 8.75247 15.4897 8.8162 15.6096C8.87993 15.7294 8.96739 15.835 9.07326 15.92C9.7172 16.4745 10.4973 16.8473 11.3333 17V18C11.3333 18.2652 11.4386 18.5196 11.6262 18.7071C11.8137 18.8946 12.068 19 12.3333 19C12.5985 19 12.8528 18.8946 13.0404 18.7071C13.2279 18.5196 13.3333 18.2652 13.3333 18V17C13.9504 16.8751 14.5273 16.6004 15.0133 16.2C15.6369 15.6752 16.0344 14.9303 16.1233 14.12C16.1282 14.0267 16.1282 13.9333 16.1233 13.84C16.1296 13.099 15.8461 12.3849 15.3333 11.85ZM22.3333 12C22.3333 13.9778 21.7468 15.9112 20.648 17.5557C19.5491 19.2002 17.9874 20.4819 16.1601 21.2388C14.3328 21.9957 12.3222 22.1937 10.3824 21.8079C8.44254 21.422 6.66071 20.4696 5.26219 19.0711C3.86366 17.6725 2.91126 15.8907 2.5254 13.9509C2.13955 12.0111 2.33758 10.0004 3.09446 8.17317C3.85134 6.3459 5.13306 4.78412 6.77755 3.6853C8.42205 2.58649 10.3554 2 12.3333 2C13.6465 2 14.9468 2.25866 16.1601 2.7612C17.3733 3.26375 18.4757 4.00035 19.4043 4.92893C20.3329 5.85752 21.0695 6.95991 21.5721 8.17317C22.0746 9.38642 22.3333 10.6868 22.3333 12ZM20.3333 12C20.3318 10.1492 19.6887 8.35623 18.5135 6.92646C17.3383 5.49669 15.7037 4.51862 13.8883 4.15887C12.0728 3.79913 10.1888 4.07998 8.55715 4.95356C6.92553 5.82715 5.64728 7.23943 4.94017 8.94978C4.23306 10.6601 4.14084 12.5628 4.67923 14.3335C5.21762 16.1042 6.35329 17.6335 7.89278 18.6608C9.43226 19.6881 11.2803 20.1498 13.1221 19.9673C14.9638 19.7848 16.6853 18.9694 17.9933 17.66C18.7359 16.9165 19.3248 16.034 19.7263 15.0628C20.1279 14.0916 20.3341 13.0509 20.3333 12Z" fill="#212529"/>
</svg>
