<svg width="20" height="20" viewBox="0 0 20 20" fill="none" xmlns="http://www.w3.org/2000/svg">
<path d="M9.99512 14.6768V12.1398" stroke="white" stroke-width="1.5" stroke-linecap="round" stroke-linejoin="round"/>
<path fill-rule="evenodd" clip-rule="evenodd" d="M16.19 3.3302C17.88 3.3302 19.24 4.7002 19.24 6.3902V9.8302C16.78 11.2702 13.53 12.1402 9.99 12.1402C6.45 12.1402 3.21 11.2702 0.75 9.8302V6.3802C0.75 4.6902 2.12 3.3302 3.81 3.3302H16.19Z" stroke="white" stroke-width="1.5" stroke-linecap="round" stroke-linejoin="round"/>
<path d="M13.4951 3.32582V2.95982C13.4951 1.73982 12.5051 0.749817 11.2851 0.749817H8.70512C7.48512 0.749817 6.49512 1.73982 6.49512 2.95982V3.32582" stroke="white" stroke-width="1.5" stroke-linecap="round" stroke-linejoin="round"/>
<path d="M0.774414 13.483L0.963414 15.992C1.09141 17.683 2.50041 18.99 4.19541 18.99H15.7944C17.4894 18.99 18.8984 17.683 19.0264 15.992L19.2154 13.483" stroke="white" stroke-width="1.5" stroke-linecap="round" stroke-linejoin="round"/>
</svg>
